<mxfile host="app.diagrams.net" modified="2024-04-04T20:04:24.302Z" agent="Mozilla/5.0 (Windows NT 10.0; Win64; x64) AppleWebKit/537.36 (KHTML, like Gecko) Chrome/123.0.0.0 Safari/537.36" etag="wr6fBv6EPEF27Fq0brWL" version="24.2.2" type="device">
  <diagram name="PÃ¡gina-1" id="uX4gqMh4QSxkNcRyJzqC">
    <mxGraphModel dx="2391" dy="2338" grid="1" gridSize="10" guides="1" tooltips="1" connect="1" arrows="1" fold="1" page="1" pageScale="1" pageWidth="827" pageHeight="1169" math="0" shadow="0">
      <root>
        <mxCell id="0" />
        <mxCell id="1" parent="0" />
        <mxCell id="2nZgwyUqxwWLBiaRlmAk-6" value="" style="rounded=0;whiteSpace=wrap;html=1;" vertex="1" parent="1">
          <mxGeometry x="10" y="-90" width="799" height="400" as="geometry" />
        </mxCell>
        <mxCell id="2nZgwyUqxwWLBiaRlmAk-7" value="&lt;span style=&quot;font-size: 24px;&quot;&gt;VPC&amp;nbsp;&lt;/span&gt;&lt;div&gt;&lt;span style=&quot;font-size: 24px;&quot;&gt;10.1.0.0/16&lt;/span&gt;&lt;/div&gt;" style="text;strokeColor=none;align=center;fillColor=none;html=1;verticalAlign=middle;whiteSpace=wrap;rounded=0;" vertex="1" parent="1">
          <mxGeometry x="370" y="-130" width="60" height="30" as="geometry" />
        </mxCell>
        <mxCell id="2nZgwyUqxwWLBiaRlmAk-9" value="" style="rounded=0;whiteSpace=wrap;html=1;" vertex="1" parent="1">
          <mxGeometry x="10" y="20" width="270" height="190" as="geometry" />
        </mxCell>
        <mxCell id="2nZgwyUqxwWLBiaRlmAk-11" value="" style="rounded=0;whiteSpace=wrap;html=1;" vertex="1" parent="1">
          <mxGeometry x="539" y="20" width="270" height="190" as="geometry" />
        </mxCell>
        <mxCell id="2nZgwyUqxwWLBiaRlmAk-12" value="&lt;font style=&quot;font-size: 24px;&quot;&gt;Public Subnet&lt;/font&gt;&lt;div&gt;&lt;font style=&quot;font-size: 24px;&quot;&gt;10.0.10.0/24&lt;/font&gt;&lt;/div&gt;" style="text;strokeColor=none;align=center;fillColor=none;html=1;verticalAlign=middle;whiteSpace=wrap;rounded=0;" vertex="1" parent="1">
          <mxGeometry x="645" y="-50" width="60" height="30" as="geometry" />
        </mxCell>
        <mxCell id="2nZgwyUqxwWLBiaRlmAk-13" value="&lt;font style=&quot;font-size: 24px;&quot;&gt;Private Subnet&lt;/font&gt;&lt;div&gt;&lt;font style=&quot;font-size: 24px;&quot;&gt;10.0.20.0/24&lt;/font&gt;&lt;/div&gt;" style="text;strokeColor=none;align=center;fillColor=none;html=1;verticalAlign=middle;whiteSpace=wrap;rounded=0;" vertex="1" parent="1">
          <mxGeometry x="110" y="-50" width="60" height="30" as="geometry" />
        </mxCell>
        <mxCell id="2nZgwyUqxwWLBiaRlmAk-14" value="" style="image;html=1;image=img/lib/clip_art/computers/Laptop_128x128.png" vertex="1" parent="1">
          <mxGeometry x="100" y="75" width="80" height="80" as="geometry" />
        </mxCell>
        <mxCell id="2nZgwyUqxwWLBiaRlmAk-15" value="" style="image;html=1;image=img/lib/clip_art/computers/Laptop_128x128.png" vertex="1" parent="1">
          <mxGeometry x="627" y="70" width="96" height="80" as="geometry" />
        </mxCell>
        <mxCell id="2nZgwyUqxwWLBiaRlmAk-16" value="&lt;font style=&quot;font-size: 18px;&quot;&gt;Amazon Linux&lt;/font&gt;" style="text;strokeColor=none;align=center;fillColor=none;html=1;verticalAlign=middle;whiteSpace=wrap;rounded=0;" vertex="1" parent="1">
          <mxGeometry x="640" y="40" width="60" height="30" as="geometry" />
        </mxCell>
        <mxCell id="2nZgwyUqxwWLBiaRlmAk-17" value="&lt;font style=&quot;font-size: 18px;&quot;&gt;Amazon Linux&lt;/font&gt;&lt;div&gt;&lt;font style=&quot;font-size: 18px;&quot;&gt;18.170.37.160&lt;/font&gt;&lt;/div&gt;" style="text;strokeColor=none;align=center;fillColor=none;html=1;verticalAlign=middle;whiteSpace=wrap;rounded=0;" vertex="1" parent="1">
          <mxGeometry x="100" y="40" width="60" height="30" as="geometry" />
        </mxCell>
        <mxCell id="2nZgwyUqxwWLBiaRlmAk-18" value="" style="outlineConnect=0;dashed=0;verticalLabelPosition=bottom;verticalAlign=top;align=center;html=1;shape=mxgraph.aws3.internet_gateway;fillColor=#F58534;gradientColor=none;" vertex="1" parent="1">
          <mxGeometry x="370" y="410" width="88" height="82" as="geometry" />
        </mxCell>
        <mxCell id="2nZgwyUqxwWLBiaRlmAk-19" value="" style="rounded=0;whiteSpace=wrap;html=1;" vertex="1" parent="1">
          <mxGeometry x="539" y="20" width="270" height="190" as="geometry" />
        </mxCell>
        <mxCell id="2nZgwyUqxwWLBiaRlmAk-20" value="" style="endArrow=none;html=1;rounded=0;entryX=0.5;entryY=1;entryDx=0;entryDy=0;" edge="1" parent="1">
          <mxGeometry width="50" height="50" relative="1" as="geometry">
            <mxPoint x="680" y="270" as="sourcePoint" />
            <mxPoint x="680" y="210" as="targetPoint" />
          </mxGeometry>
        </mxCell>
        <mxCell id="2nZgwyUqxwWLBiaRlmAk-22" value="" style="endArrow=none;html=1;rounded=0;exitX=0.488;exitY=0.9;exitDx=0;exitDy=0;exitPerimeter=0;" edge="1" parent="1">
          <mxGeometry width="50" height="50" relative="1" as="geometry">
            <mxPoint x="410.002" y="270" as="sourcePoint" />
            <mxPoint x="680.09" y="270" as="targetPoint" />
          </mxGeometry>
        </mxCell>
        <mxCell id="2nZgwyUqxwWLBiaRlmAk-23" value="" style="endArrow=classic;html=1;rounded=0;" edge="1" parent="1">
          <mxGeometry width="50" height="50" relative="1" as="geometry">
            <mxPoint x="408.78999999999996" y="270" as="sourcePoint" />
            <mxPoint x="410" y="400" as="targetPoint" />
          </mxGeometry>
        </mxCell>
        <mxCell id="2nZgwyUqxwWLBiaRlmAk-25" value="" style="endArrow=none;html=1;rounded=0;entryX=0.406;entryY=0.995;entryDx=0;entryDy=0;entryPerimeter=0;" edge="1" parent="1" target="2nZgwyUqxwWLBiaRlmAk-9">
          <mxGeometry width="50" height="50" relative="1" as="geometry">
            <mxPoint x="120" y="270" as="sourcePoint" />
            <mxPoint x="170" y="400" as="targetPoint" />
          </mxGeometry>
        </mxCell>
        <mxCell id="2nZgwyUqxwWLBiaRlmAk-26" value="" style="endArrow=none;html=1;rounded=0;" edge="1" parent="1">
          <mxGeometry width="50" height="50" relative="1" as="geometry">
            <mxPoint x="120" y="270" as="sourcePoint" />
            <mxPoint x="410" y="270" as="targetPoint" />
          </mxGeometry>
        </mxCell>
        <mxCell id="2nZgwyUqxwWLBiaRlmAk-27" value="&lt;font style=&quot;font-size: 18px;&quot;&gt;Internet Gateway&lt;/font&gt;&lt;div&gt;&lt;font style=&quot;font-size: 18px;&quot;&gt;0.0.0.0/0&lt;/font&gt;&lt;/div&gt;" style="text;strokeColor=none;align=center;fillColor=none;html=1;verticalAlign=middle;whiteSpace=wrap;rounded=0;" vertex="1" parent="1">
          <mxGeometry x="479" y="436" width="60" height="30" as="geometry" />
        </mxCell>
        <mxCell id="2nZgwyUqxwWLBiaRlmAk-28" value="" style="image;aspect=fixed;perimeter=ellipsePerimeter;html=1;align=center;shadow=0;dashed=0;spacingTop=3;image=img/lib/active_directory/internet_cloud.svg;" vertex="1" parent="1">
          <mxGeometry x="331.5" y="630" width="165" height="103.95" as="geometry" />
        </mxCell>
        <mxCell id="2nZgwyUqxwWLBiaRlmAk-29" value="&lt;font style=&quot;font-size: 18px;&quot;&gt;Internet&lt;/font&gt;&lt;div&gt;&lt;font style=&quot;font-size: 18px;&quot;&gt;&lt;br&gt;&lt;/font&gt;&lt;/div&gt;" style="text;strokeColor=none;align=center;fillColor=none;html=1;verticalAlign=middle;whiteSpace=wrap;rounded=0;" vertex="1" parent="1">
          <mxGeometry x="379.5" y="760" width="60" height="30" as="geometry" />
        </mxCell>
        <mxCell id="2nZgwyUqxwWLBiaRlmAk-31" value="" style="image;html=1;image=img/lib/clip_art/computers/Laptop_128x128.png" vertex="1" parent="1">
          <mxGeometry x="645" y="75" width="80" height="80" as="geometry" />
        </mxCell>
        <mxCell id="2nZgwyUqxwWLBiaRlmAk-32" value="&lt;span style=&quot;font-family: &amp;quot;Times New Roman&amp;quot;; text-align: start; white-space: pre;&quot;&gt;&lt;font style=&quot;font-size: 18px;&quot;&gt;Amazon Linux&lt;/font&gt;&lt;/span&gt;&lt;div&gt;&lt;span style=&quot;font-family: &amp;quot;Times New Roman&amp;quot;; text-align: start; white-space: pre;&quot;&gt;&lt;font style=&quot;font-size: 18px;&quot;&gt;10.1.20.189&lt;/font&gt;&lt;/span&gt;&lt;/div&gt;" style="text;strokeColor=none;align=center;fillColor=none;html=1;verticalAlign=middle;whiteSpace=wrap;rounded=0;" vertex="1" parent="1">
          <mxGeometry x="630" y="35" width="80" height="40" as="geometry" />
        </mxCell>
      </root>
    </mxGraphModel>
  </diagram>
</mxfile>
